<?xml version="1.0" encoding="UTF-8"?>
<svg id="Layer_1" data-name="Layer 1" xmlns="http://www.w3.org/2000/svg" xmlns:xlink="http://www.w3.org/1999/xlink" viewBox="0 0 583.21 297.27">
  <defs>
    <style>
      .cls-1 {
        fill: url(#linear-gradient-2);
      }

      .cls-2 {
        fill: url(#linear-gradient-6);
      }

      .cls-3 {
        fill: url(#linear-gradient-11);
      }

      .cls-4 {
        fill: url(#linear-gradient-10);
      }

      .cls-5 {
        fill: url(#linear-gradient-5);
      }

      .cls-6 {
        fill: url(#linear-gradient-7);
      }

      .cls-7 {
        fill: #94a3b8;
      }

      .cls-8 {
        fill: url(#linear-gradient-9);
      }

      .cls-9 {
        fill: url(#linear-gradient-3);
      }

      .cls-10 {
        fill: url(#linear-gradient);
      }

      .cls-11 {
        fill: url(#linear-gradient-4);
      }

      .cls-12 {
        fill: url(#linear-gradient-8);
      }

      .cls-13 {
        fill: url(#linear-gradient-12);
      }

      .cls-14 {
        fill: url(#linear-gradient-13);
      }
    </style>
    <linearGradient id="linear-gradient" x1="185.59" y1="1.55" x2="185.59" y2="161.35" gradientUnits="userSpaceOnUse">
      <stop offset="0" stop-color="#775ff5"/>
      <stop offset="1" stop-color="#d882d5"/>
    </linearGradient>
    <linearGradient id="linear-gradient-2" x1="185.59" y1="1.55" x2="185.59" y2="161.35" xlink:href="#linear-gradient"/>
    <linearGradient id="linear-gradient-3" x1="397.63" y1="1.55" x2="397.63" y2="161.35" xlink:href="#linear-gradient"/>
    <linearGradient id="linear-gradient-4" x1="397.63" y1="1.55" x2="397.63" y2="161.35" xlink:href="#linear-gradient"/>
    <linearGradient id="linear-gradient-5" x1="299.59" y1="171.76" x2="299.59" y2="-1.89" gradientUnits="userSpaceOnUse">
      <stop offset="0" stop-color="#d882d5"/>
      <stop offset="1" stop-color="#775ff5"/>
    </linearGradient>
    <linearGradient id="linear-gradient-6" x1="301.03" x2="301.03" y2="-1.89" xlink:href="#linear-gradient-5"/>
    <linearGradient id="linear-gradient-7" x1="155.53" y1="284.15" x2="453.03" y2="284.15" xlink:href="#linear-gradient"/>
    <linearGradient id="linear-gradient-8" x1="155.53" y1="284.31" x2="453.03" y2="284.31" xlink:href="#linear-gradient"/>
    <linearGradient id="linear-gradient-9" x1="155.53" y1="284.44" x2="453.03" y2="284.44" xlink:href="#linear-gradient"/>
    <linearGradient id="linear-gradient-10" x1="155.53" y1="284.31" x2="453.03" y2="284.31" xlink:href="#linear-gradient"/>
    <linearGradient id="linear-gradient-11" x1="155.53" y1="284.31" x2="453.03" y2="284.31" xlink:href="#linear-gradient"/>
    <linearGradient id="linear-gradient-12" x1="155.53" y1="284.13" x2="453.03" y2="284.13" xlink:href="#linear-gradient"/>
    <linearGradient id="linear-gradient-13" x1="155.53" y1="284.15" x2="453.03" y2="284.15" xlink:href="#linear-gradient"/>
  </defs>
  <g>
    <g>
      <g>
        <path class="cls-10" d="M163.94,92.37v-17.53c7.11,0,12.89-5.78,12.89-12.89V30.41c0-16.77,13.64-30.41,30.41-30.41V17.53c-7.11,0-12.89,5.78-12.89,12.89v31.55c0,16.77-13.64,30.41-30.41,30.41Z"/>
        <path class="cls-1" d="M207.24,167.22c-16.77,0-30.41-13.64-30.41-30.41v-31.55c0-7.11-5.78-12.89-12.89-12.89v-17.53c16.77,0,30.41,13.64,30.41,30.41v31.55c0,7.11,5.78,12.89,12.89,12.89v17.53Z"/>
      </g>
      <g>
        <path class="cls-9" d="M419.28,92.37c-16.77,0-30.41-13.64-30.41-30.41V30.41c0-7.11-5.78-12.89-12.89-12.89V0c16.77,0,30.41,13.64,30.41,30.41v31.55c0,7.11,5.78,12.89,12.89,12.89v17.53Z"/>
        <path class="cls-11" d="M375.98,167.22v-17.53c7.11,0,12.89-5.78,12.89-12.89v-31.55c0-16.77,13.64-30.41,30.41-30.41v17.53c-7.11,0-12.89,5.78-12.89,12.89v31.55c0,16.77-13.64,30.41-30.41,30.41Z"/>
      </g>
    </g>
    <g>
      <path class="cls-5" d="M298.77,127.86s.94-1.13,2.51-2.88c.41-7.1-.45-14.18-1.66-20.19-1.82,6.33-2.57,14.05-.85,23.08Z"/>
      <path class="cls-2" d="M326.61,68.1h0s36.41-36.42,36.41-36.42l-11.22-11.22-61.24,61.24h0s-5.01,5.01-5.01,5.01l24.79-34.85-18.44-18.44c-1.57-1.59-4.15-1.59-5.71,0l-25.13,25.13c-14.9,14.89-23.01,35.36-21.94,56.42,.34,6.88,1.23,14.65,2.92,23.24,.32,1.63,1.59,2.92,3.23,3.23,8.24,1.62,15.71,2.49,22.4,2.87-.39-4.8-3.37-18.98-23.91-37.81,0,0,19.79,4.47,26.82,19.79,0,0,1.91-15-11.8-30.96,.54,.41,17.6,13.7,21.37,32.87,0,0-1.75-15.64,1.76-21.7,0,0,2.42,17.55,6.08,24.26,0,0,1.64-16.39,10.43-31.19-1.7-6.68-3.49-11.1-3.49-11.1,2.21,2.35,4.05,5.01,5.58,7.83,3.13-4.58,7.02-8.86,11.85-12.28-.55,.47-6.46,5.54-10.58,14.81,0,0,0,0,0,0,3.14,6.73,4.7,14.03,5.48,19.93h0c4.21-4.1,9.46-8.59,14.4-11.15,0,0-10.86,10.65-11.43,26.28,5.32-3.17,10.26-7.01,14.71-11.46l25.12-25.13c1.57-1.59,1.57-4.15,0-5.73l-23.46-23.47Z"/>
    </g>
  </g>
  <g>
    <g>
      <path class="cls-7" d="M0,247.68v-56.35H41.24c2.74,0,5.23,.31,7.48,.93,2.25,.62,4.17,1.54,5.78,2.75,1.6,1.22,2.84,2.74,3.72,4.57,.88,1.83,1.32,3.94,1.32,6.32,0,1.81-.21,3.39-.62,4.73-.41,1.34-.98,2.49-1.71,3.45-.72,.96-1.56,1.76-2.52,2.4-.96,.65-1.95,1.12-2.98,1.43,2.58,.83,4.7,2.33,6.36,4.5,1.65,2.17,2.48,4.91,2.48,8.22,0,2.58-.43,4.92-1.28,7.02-.85,2.09-2.07,3.89-3.64,5.39-1.58,1.5-3.49,2.65-5.74,3.45s-4.74,1.2-7.48,1.2H0Zm16.98-24.49v-8.29h24.34c2.79,0,4.86-.52,6.2-1.55,1.34-1.03,2.02-2.79,2.02-5.27,0-1.5-.28-2.7-.85-3.6-.57-.9-1.38-1.6-2.44-2.09-1.06-.49-2.33-.81-3.8-.97-1.47-.16-3.11-.23-4.92-.23H9.84v36.74h28.53c1.76,0,3.38-.13,4.88-.39,1.5-.26,2.79-.68,3.88-1.28s1.92-1.36,2.52-2.29c.59-.93,.89-2.09,.89-3.49,0-2.33-.72-4.12-2.17-5.39-1.45-1.26-3.57-1.9-6.36-1.9H16.98Z"/>
      <path class="cls-7" d="M131.23,247.68l-8.45-14.19h-26.66l4.65-7.98h17.29l-12.56-21.08-25.58,43.25h-11.24l32.4-53.95c.57-.98,1.24-1.76,2.02-2.33,.78-.57,1.71-.85,2.79-.85s2,.28,2.75,.85c.75,.57,1.41,1.35,1.98,2.33l32.48,53.95h-11.86Z"/>
      <path class="cls-7" d="M175.1,247.68c-3.93,0-7.56-.74-10.89-2.21-3.33-1.47-6.23-3.49-8.68-6.05-2.45-2.56-4.37-5.59-5.74-9.11-1.37-3.51-2.05-7.31-2.05-11.39s.68-7.91,2.05-11.32c1.37-3.41,3.28-6.32,5.74-8.72,2.45-2.4,5.35-4.26,8.68-5.58,3.33-1.32,6.96-1.98,10.89-1.98h30.54v9.84h-30.54c-2.53,0-4.87,.45-7.02,1.36-2.14,.91-3.99,2.16-5.54,3.76-1.55,1.6-2.76,3.51-3.64,5.74-.88,2.22-1.32,4.68-1.32,7.36s.44,5.09,1.32,7.36c.88,2.27,2.09,4.22,3.64,5.85,1.55,1.63,3.4,2.91,5.54,3.84,2.14,.93,4.48,1.39,7.02,1.39h30.54v9.84h-30.54Z"/>
      <path class="cls-7" d="M221.38,247.68v-56.35h9.84v56.35h-9.84Zm46.43,0l-31.55-24.8c-.88-.67-1.43-1.33-1.67-1.98-.23-.65-.35-1.36-.35-2.13,0-.88,.16-1.65,.47-2.32s.98-1.4,2.02-2.17l29.84-22.94h15.12l-36.9,27.52,38.06,28.83h-15.04Z"/>
      <path class="cls-7" d="M323,247.68v-21.39l-29.92-34.96h13.25l21.94,25.97,22.01-25.97h12.56l-30,34.96v21.39h-9.84Z"/>
      <path class="cls-7" d="M418.34,247.68l-8.45-14.19h-26.66l4.65-7.98h17.29l-12.56-21.08-25.58,43.25h-11.24l32.4-53.95c.57-.98,1.24-1.76,2.02-2.33,.78-.57,1.71-.85,2.79-.85s2,.28,2.75,.85c.75,.57,1.41,1.35,1.98,2.33l32.48,53.95h-11.86Z"/>
      <path class="cls-7" d="M496.32,247.68l-14.26-15.66h-21.08v-8.68h23.49c3.57,0,6.25-.97,8.06-2.91,1.81-1.94,2.71-4.74,2.71-8.41s-.94-6.39-2.83-8.18c-1.89-1.78-4.53-2.67-7.95-2.67h-30.7v46.51h-9.77v-56.35h40.46c3.2,0,6.07,.48,8.6,1.43,2.53,.96,4.68,2.32,6.43,4.11,1.76,1.78,3.1,3.94,4.03,6.47,.93,2.53,1.39,5.37,1.39,8.53,0,4.7-1.02,8.64-3.06,11.82-2.04,3.18-4.9,5.46-8.57,6.86l16.98,17.13h-13.95Z"/>
      <path class="cls-7" d="M523.14,247.68v-56.35h32.63c3.98,0,7.65,.67,11.01,2.01,3.36,1.35,6.25,3.23,8.68,5.66,2.43,2.43,4.33,5.33,5.7,8.72,1.37,3.38,2.05,7.12,2.05,11.2s-.69,7.88-2.05,11.39c-1.37,3.52-3.27,6.55-5.7,9.11-2.43,2.56-5.32,4.57-8.68,6.05-3.36,1.47-7.03,2.21-11.01,2.21h-32.63Zm32.63-9.84c2.53,0,4.87-.46,7.01-1.39,2.14-.93,4-2.21,5.58-3.84,1.58-1.63,2.8-3.58,3.68-5.85,.88-2.27,1.32-4.73,1.32-7.36s-.44-5.08-1.32-7.33c-.88-2.25-2.11-4.17-3.68-5.77-1.58-1.6-3.44-2.85-5.58-3.76-2.14-.9-4.48-1.36-7.01-1.36h-22.87v36.66h22.87Z"/>
    </g>
    <g>
      <path class="cls-6" d="M166.95,274.98c-1.25,0-2.27,.25-3.06,.76s-1.2,1.27-1.2,2.3,.4,1.81,1.2,2.36,2.49,1.13,5.09,1.76c2.6,.63,4.56,1.51,5.87,2.65,1.32,1.14,1.98,2.81,1.98,5.02s-.83,4.01-2.5,5.38c-1.67,1.38-3.86,2.07-6.56,2.07-3.96,0-7.48-1.37-10.55-4.1l2.68-3.23c2.56,2.22,5.22,3.34,7.98,3.34,1.38,0,2.47-.3,3.28-.89,.81-.59,1.21-1.38,1.21-2.36s-.38-1.74-1.14-2.28c-.76-.54-2.07-1.04-3.93-1.49-1.86-.45-3.28-.86-4.24-1.23-.97-.37-1.82-.86-2.57-1.47-1.5-1.14-2.25-2.88-2.25-5.22s.85-4.15,2.56-5.42,3.81-1.9,6.33-1.9c1.62,0,3.23,.27,4.82,.8,1.59,.53,2.97,1.28,4.13,2.25l-2.28,3.23c-.75-.68-1.76-1.23-3.04-1.67-1.28-.43-2.54-.65-3.79-.65Z"/>
      <path class="cls-12" d="M209.09,275.56v21.42h-4.28v-21.42h-7.69v-3.92h19.65v3.92h-7.69Z"/>
      <path class="cls-8" d="M244.51,291.18c1.16,1.35,2.73,2.03,4.71,2.03s3.55-.68,4.71-2.03c1.16-1.35,1.74-3.19,1.74-5.51v-14.03h4.28v14.21c0,3.65-1,6.46-3.01,8.43-2.01,1.97-4.58,2.95-7.72,2.95s-5.72-.98-7.72-2.95c-2.01-1.97-3.01-4.78-3.01-8.43v-14.21h4.28v14.03c0,2.32,.58,4.16,1.74,5.51Z"/>
      <path class="cls-4" d="M303.23,274.96c2.44,2.21,3.66,5.29,3.66,9.23s-1.18,7.06-3.55,9.35c-2.37,2.3-5.99,3.44-10.88,3.44h-8.41v-25.34h8.7c4.54,0,8.03,1.11,10.48,3.32Zm-.65,9.33c0-5.8-3.32-8.7-9.97-8.7h-4.28v17.37h4.75c3.07,0,5.42-.73,7.05-2.19,1.63-1.46,2.45-3.62,2.45-6.47Z"/>
      <path class="cls-3" d="M329.81,271.64h4.28v25.34h-4.28v-25.34Z"/>
      <path class="cls-13" d="M379.73,293.49c-2.56,2.5-5.73,3.75-9.5,3.75s-6.94-1.25-9.5-3.75c-2.56-2.5-3.84-5.62-3.84-9.35s1.28-6.85,3.84-9.35c2.56-2.5,5.73-3.75,9.5-3.75s6.94,1.25,9.5,3.75c2.56,2.5,3.84,5.62,3.84,9.35s-1.28,6.85-3.84,9.35Zm-3.14-15.86c-1.73-1.79-3.85-2.68-6.36-2.68s-4.63,.89-6.36,2.68c-1.73,1.79-2.59,3.96-2.59,6.51s.86,4.72,2.59,6.51c1.73,1.79,3.85,2.68,6.36,2.68s4.63-.89,6.36-2.68c1.73-1.79,2.59-3.96,2.59-6.51s-.86-4.72-2.59-6.51Z"/>
      <path class="cls-14" d="M414.04,274.98c-1.25,0-2.27,.25-3.06,.76s-1.2,1.27-1.2,2.3,.4,1.81,1.2,2.36,2.49,1.13,5.09,1.76c2.6,.63,4.56,1.51,5.87,2.65,1.32,1.14,1.98,2.81,1.98,5.02s-.83,4.01-2.5,5.38c-1.67,1.38-3.86,2.07-6.56,2.07-3.96,0-7.48-1.37-10.55-4.1l2.68-3.23c2.56,2.22,5.22,3.34,7.98,3.34,1.38,0,2.47-.3,3.28-.89,.81-.59,1.21-1.38,1.21-2.36s-.38-1.74-1.14-2.28c-.76-.54-2.07-1.04-3.93-1.49-1.86-.45-3.28-.86-4.24-1.23-.97-.37-1.82-.86-2.57-1.47-1.5-1.14-2.25-2.88-2.25-5.22s.85-4.15,2.56-5.42,3.81-1.9,6.33-1.9c1.62,0,3.23,.27,4.82,.8,1.59,.53,2.97,1.28,4.13,2.25l-2.28,3.23c-.75-.68-1.76-1.23-3.04-1.67-1.28-.43-2.54-.65-3.79-.65Z"/>
    </g>
  </g>
</svg>