<?xml version="1.0" encoding="UTF-8"?>
<svg id="Layer_1" data-name="Layer 1" xmlns="http://www.w3.org/2000/svg" xmlns:xlink="http://www.w3.org/1999/xlink" viewBox="0 0 583.21 232.25">
  <defs>
    <style>
      .cls-1 {
        fill: url(#linear-gradient-2);
      }

      .cls-2 {
        fill: url(#linear-gradient-6);
      }

      .cls-3 {
        fill: url(#linear-gradient-5);
      }

      .cls-4 {
        fill: url(#linear-gradient-3);
      }

      .cls-5 {
        fill: url(#linear-gradient);
      }

      .cls-6 {
        fill: url(#linear-gradient-4);
      }
    </style>
    <linearGradient id="linear-gradient" x1="185.59" y1="1.55" x2="185.59" y2="161.35" gradientUnits="userSpaceOnUse">
      <stop offset="0" stop-color="#775ff5"/>
      <stop offset="1" stop-color="#d882d5"/>
    </linearGradient>
    <linearGradient id="linear-gradient-2" x1="185.59" y1="1.55" x2="185.59" y2="161.35" xlink:href="#linear-gradient"/>
    <linearGradient id="linear-gradient-3" x1="397.63" y1="1.55" x2="397.63" y2="161.35" xlink:href="#linear-gradient"/>
    <linearGradient id="linear-gradient-4" x1="397.63" y1="1.55" x2="397.63" y2="161.35" xlink:href="#linear-gradient"/>
    <linearGradient id="linear-gradient-5" x1="299.59" y1="171.76" x2="299.59" y2="-1.89" gradientUnits="userSpaceOnUse">
      <stop offset="0" stop-color="#d882d5"/>
      <stop offset="1" stop-color="#775ff5"/>
    </linearGradient>
    <linearGradient id="linear-gradient-6" x1="301.03" y1="171.76" x2="301.03" y2="-1.89" xlink:href="#linear-gradient-5"/>
  </defs>
  <g>
    <g>
      <path class="cls-5" d="M163.94,92.37v-17.53c7.11,0,12.89-5.78,12.89-12.89V30.41c0-16.77,13.64-30.41,30.41-30.41V17.53c-7.11,0-12.89,5.78-12.89,12.89v31.55c0,16.77-13.64,30.41-30.41,30.41Z"/>
      <path class="cls-1" d="M207.24,167.22c-16.77,0-30.41-13.64-30.41-30.41v-31.55c0-7.11-5.78-12.89-12.89-12.89v-17.53c16.77,0,30.41,13.64,30.41,30.41v31.55c0,7.11,5.78,12.89,12.89,12.89v17.53Z"/>
    </g>
    <g>
      <path class="cls-4" d="M419.28,92.37c-16.77,0-30.41-13.64-30.41-30.41V30.41c0-7.11-5.78-12.89-12.89-12.89V0c16.77,0,30.41,13.64,30.41,30.41v31.55c0,7.11,5.78,12.89,12.89,12.89v17.53Z"/>
      <path class="cls-6" d="M375.98,167.22v-17.53c7.11,0,12.89-5.78,12.89-12.89v-31.55c0-16.77,13.64-30.41,30.41-30.41v17.53c-7.11,0-12.89,5.78-12.89,12.89v31.55c0,16.77-13.64,30.41-30.41,30.41Z"/>
    </g>
  </g>
  <g>
    <path class="cls-3" d="M298.77,127.86s.94-1.13,2.51-2.88c.41-7.1-.45-14.18-1.66-20.19-1.82,6.33-2.57,14.05-.85,23.08Z"/>
    <path class="cls-2" d="M326.61,68.1h0s36.41-36.42,36.41-36.42l-11.22-11.22-61.24,61.24h0s-5.01,5.01-5.01,5.01l24.79-34.85-18.44-18.44c-1.57-1.59-4.15-1.59-5.71,0l-25.13,25.13c-14.9,14.89-23.01,35.36-21.94,56.42,.34,6.88,1.23,14.65,2.92,23.24,.32,1.63,1.59,2.92,3.23,3.23,8.24,1.62,15.71,2.49,22.4,2.87-.39-4.8-3.37-18.98-23.91-37.81,0,0,19.79,4.47,26.82,19.79,0,0,1.91-15-11.8-30.96,.54,.41,17.6,13.7,21.37,32.87,0,0-1.75-15.64,1.76-21.7,0,0,2.42,17.55,6.08,24.26,0,0,1.64-16.39,10.43-31.19-1.7-6.68-3.49-11.1-3.49-11.1,2.21,2.35,4.05,5.01,5.58,7.83,3.13-4.58,7.02-8.86,11.85-12.28-.55,.47-6.46,5.54-10.58,14.81,0,0,0,0,0,0,3.14,6.73,4.7,14.03,5.48,19.93h0c4.21-4.1,9.46-8.59,14.4-11.15,0,0-10.86,10.65-11.43,26.28,5.32-3.17,10.26-7.01,14.71-11.46l25.12-25.13c1.57-1.59,1.57-4.15,0-5.73l-23.46-23.47Z"/>
  </g>
</svg>