<?xml version="1.0" encoding="utf-8"?>
<!-- Generator: Adobe Illustrator 27.1.1, SVG Export Plug-In . SVG Version: 6.00 Build 0)  -->
<svg version="1.1" id="Layer_1" xmlns="http://www.w3.org/2000/svg" xmlns:xlink="http://www.w3.org/1999/xlink" x="0px" y="0px"
	 viewBox="0 0 2000 2000" style="enable-background:new 0 0 2000 2000;" xml:space="preserve">
<style type="text/css">
	.st0{fill:#8A99AE;}
	.st1{fill:url(#SVGID_1_);}
	.st2{fill:url(#SVGID_00000075133202832835110180000012418425478020071614_);}
</style>
<g>
	<g>
		<g>
			<path class="st0" d="M523.2,1271l18,34.3h-17.9l-17.8-33.9h-38.2v33.9h-16.7l-0.1-47.4h65.7c7.5,0,8.3-3.3,8.3-5.9v-5.6
				c0-2.5-0.9-5.9-8.3-5.9h-49l-16.7-0.1V1227h65.6c20.7,0,25,10.6,25,19.5v5.4C541.3,1259.6,538.1,1268.9,523.2,1271z"/>
		</g>
		<g>
			<polygon class="st0" points="639,1227 639,1240.6 575.2,1240.6 575.2,1240.7 558.6,1240.7 558.6,1227 			"/>
			<polygon class="st0" points="575.2,1291.8 639,1291.8 639,1305.3 558.6,1305.3 558.6,1257.3 635.7,1257.2 635.7,1270.8 
				575.2,1270.8 			"/>
		</g>
		<g>
			<polygon class="st0" points="759.7,1227.1 759.7,1305.3 751.2,1305.3 750.9,1305.1 671.8,1247.3 671.8,1305.3 656.9,1305.3 
				656.9,1227.1 670.9,1227.1 744.9,1282.3 744.9,1227.1 			"/>
		</g>
		<g>
			<path class="st0" d="M850.2,1227h-70.7v13.4l16.7,0.2h54c9.4,0,12.5,1.5,12.5,10.1v31.7c0,7-1.9,9.4-12.5,9.4h-54V1247l-16.7,5.4
				v52.9h70.7c20.5,0,29.2-6.8,29.2-22.8v-31.8C879.4,1233.9,871,1227,850.2,1227z"/>
		</g>
		<polygon class="st0" points="1226.4,1227.1 1242.8,1227.1 1206.7,1305.3 1194.5,1305.3 1168.9,1248.7 1142.8,1305.3 
			1130.8,1305.3 1094.9,1227.1 1111.2,1227.1 1136.9,1283.7 1162.8,1227.1 1174.9,1227.1 1200.5,1283.7 		"/>
		<polygon class="st0" points="1514.5,1263.6 1549.1,1305.3 1529.6,1305.3 1500.9,1271.4 1477.9,1271.4 1477.9,1305.3 
			1461.3,1305.3 1461.3,1227.1 1477.9,1227.1 1477.9,1257.9 1500.6,1257.9 1529.2,1227.1 1549.4,1227.1 		"/>
		<g>
			<path class="st0" d="M1425.8,1270.9l18,34.3h-17.9l-17.8-33.9h-38.2v33.9h-16.7l-0.1-47.4h65.7c7.5,0,8.3-3.3,8.3-5.9v-5.6
				c0-2.5-0.9-5.9-8.3-5.9h-49l-16.7-0.1V1227h65.6c20.7,0,25,10.6,25,19.5v5.4C1443.9,1259.5,1440.7,1268.8,1425.8,1270.9z"/>
		</g>
		<g>
			<path class="st0" d="M1069.6,1271l18,34.3h-17.9l-17.8-33.9h-38.2v33.9h-16.7l-0.1-47.4h65.7c7.5,0,8.3-3.3,8.3-5.9v-5.6
				c0-2.5-0.9-5.9-8.3-5.9h-49l-16.7-0.1v-13.5h65.6c20.7,0,25,10.6,25,19.5v5.4C1087.8,1259.6,1084.6,1269,1069.6,1271z"/>
		</g>
		<g>
			<polygon class="st0" points="979,1226.7 979,1240.3 915.3,1240.3 915.3,1240.4 898.6,1240.4 898.6,1226.7 			"/>
			<polygon class="st0" points="915.3,1291.5 979,1291.5 979,1305 898.6,1305 898.6,1257 975.8,1256.9 975.8,1270.5 915.3,1270.5 
							"/>
		</g>
		<g>
			<polygon class="st0" points="1335.4,1226.9 1335.4,1240.4 1271.7,1240.4 1271.7,1240.5 1255,1240.5 1255,1226.9 			"/>
			<polygon class="st0" points="1271.7,1291.6 1335.4,1291.6 1335.4,1305.1 1255,1305.1 1255,1257.2 1332.1,1257.1 1332.1,1270.6 
				1271.7,1270.6 			"/>
		</g>
	</g>
	<g>
		<g>
			<path class="st0" d="M1000,694.7c-44.1,0-85.5,11.4-121.5,31.3c8.1,2.4,13.8,5.5,17.7,8.6c31.3-15.4,66.6-24.1,103.8-24.1
				c37.3,0,72.6,8.7,103.9,24.2c4.6-2.9,10.6-6,18.1-8.4C1085.9,706.2,1044.2,694.7,1000,694.7z M1222.7,829.2
				c-2.2,5-5.4,10.6-9.8,15.6c14.8,30.8,23.1,65.3,23.1,101.6c0,36.6-8.4,71.3-23.4,102.3c3.7,4.5,7.4,9.7,10.1,15.1
				c18.6-35.1,29.1-75,29.1-117.4C1251.7,904.1,1241.2,864.1,1222.7,829.2z M1000,1182.3c-37.9,0-73.7-9-105.5-24.9
				c-5.2,3.6-11.6,6.3-18.1,8.2c36.5,20.7,78.7,32.5,123.6,32.5c44.3,0,86.1-11.5,122.3-31.8c-6.1-2-12.1-4.8-17.1-8.8
				C1073.5,1173.3,1037.8,1182.3,1000,1182.3z M764.1,946.4c0-34.8,7.6-67.9,21.2-97.7c-4-5-7.4-10.2-10.2-15.2
				c-17.1,34-26.8,72.3-26.8,112.9c0,43,10.8,83.5,30,118.9c3.1-7,6.6-12.3,9.5-16C772.6,1018.2,764.1,983.2,764.1,946.4z"/>
		</g>
		<g>
			<g>
				<linearGradient id="SVGID_1_" gradientUnits="userSpaceOnUse" x1="999.987" y1="732.9152" x2="999.987" y2="1159.7749">
					<stop  offset="0" style="stop-color:#7458EB"/>
					<stop  offset="1" style="stop-color:#D077CD"/>
				</linearGradient>
				<path class="st1" d="M997.1,874.1c-37.6,0-68.3,30.6-68.3,68.3c0,37.6,30.6,68.3,68.3,68.3c37.6,0,68.3-30.6,68.3-68.3
					C1065.4,904.8,1034.7,874.1,997.1,874.1z M997.1,1003.8c-33.9,0-61.4-27.6-61.4-61.4c0-33.9,27.6-61.4,61.4-61.4
					c33.9,0,61.4,27.6,61.4,61.4C1058.5,976.3,1031,1003.8,997.1,1003.8z M997.1,874.1c-37.6,0-68.3,30.6-68.3,68.3
					c0,37.6,30.6,68.3,68.3,68.3c37.6,0,68.3-30.6,68.3-68.3C1065.4,904.8,1034.7,874.1,997.1,874.1z M997.1,1003.8
					c-33.9,0-61.4-27.6-61.4-61.4c0-33.9,27.6-61.4,61.4-61.4c33.9,0,61.4,27.6,61.4,61.4C1058.5,976.3,1031,1003.8,997.1,1003.8z
					 M997.1,874.1c-37.6,0-68.3,30.6-68.3,68.3c0,37.6,30.6,68.3,68.3,68.3c37.6,0,68.3-30.6,68.3-68.3
					C1065.4,904.8,1034.7,874.1,997.1,874.1z M997.1,1003.8c-33.9,0-61.4-27.6-61.4-61.4c0-33.9,27.6-61.4,61.4-61.4
					c33.9,0,61.4,27.6,61.4,61.4C1058.5,976.3,1031,1003.8,997.1,1003.8z M997.1,874.1c-37.6,0-68.3,30.6-68.3,68.3
					c0,37.6,30.6,68.3,68.3,68.3c37.6,0,68.3-30.6,68.3-68.3C1065.4,904.8,1034.7,874.1,997.1,874.1z M997.1,1003.8
					c-33.9,0-61.4-27.6-61.4-61.4c0-33.9,27.6-61.4,61.4-61.4c33.9,0,61.4,27.6,61.4,61.4C1058.5,976.3,1031,1003.8,997.1,1003.8z
					 M997.1,874.1c-37.6,0-68.3,30.6-68.3,68.3c0,37.6,30.6,68.3,68.3,68.3c37.6,0,68.3-30.6,68.3-68.3
					C1065.4,904.8,1034.7,874.1,997.1,874.1z M997.1,1003.8c-33.9,0-61.4-27.6-61.4-61.4c0-33.9,27.6-61.4,61.4-61.4
					c33.9,0,61.4,27.6,61.4,61.4C1058.5,976.3,1031,1003.8,997.1,1003.8z M997.1,874.1c-37.6,0-68.3,30.6-68.3,68.3
					c0,37.6,30.6,68.3,68.3,68.3c37.6,0,68.3-30.6,68.3-68.3C1065.4,904.8,1034.7,874.1,997.1,874.1z M997.1,1003.8
					c-33.9,0-61.4-27.6-61.4-61.4c0-33.9,27.6-61.4,61.4-61.4c33.9,0,61.4,27.6,61.4,61.4C1058.5,976.3,1031,1003.8,997.1,1003.8z
					 M997.1,874.1c-37.6,0-68.3,30.6-68.3,68.3c0,37.6,30.6,68.3,68.3,68.3c37.6,0,68.3-30.6,68.3-68.3
					C1065.4,904.8,1034.7,874.1,997.1,874.1z M997.1,1003.8c-33.9,0-61.4-27.6-61.4-61.4c0-33.9,27.6-61.4,61.4-61.4
					c33.9,0,61.4,27.6,61.4,61.4C1058.5,976.3,1031,1003.8,997.1,1003.8z M997.1,874.1c-37.6,0-68.3,30.6-68.3,68.3
					c0,37.6,30.6,68.3,68.3,68.3c37.6,0,68.3-30.6,68.3-68.3C1065.4,904.8,1034.7,874.1,997.1,874.1z M997.1,1003.8
					c-33.9,0-61.4-27.6-61.4-61.4c0-33.9,27.6-61.4,61.4-61.4c33.9,0,61.4,27.6,61.4,61.4C1058.5,976.3,1031,1003.8,997.1,1003.8z
					 M997.1,874.1c-37.6,0-68.3,30.6-68.3,68.3c0,37.6,30.6,68.3,68.3,68.3c37.6,0,68.3-30.6,68.3-68.3
					C1065.4,904.8,1034.7,874.1,997.1,874.1z M997.1,1003.8c-33.9,0-61.4-27.6-61.4-61.4c0-33.9,27.6-61.4,61.4-61.4
					c33.9,0,61.4,27.6,61.4,61.4C1058.5,976.3,1031,1003.8,997.1,1003.8z M997.1,874.1c-37.6,0-68.3,30.6-68.3,68.3
					c0,37.6,30.6,68.3,68.3,68.3c37.6,0,68.3-30.6,68.3-68.3C1065.4,904.8,1034.7,874.1,997.1,874.1z M997.1,1003.8
					c-33.9,0-61.4-27.6-61.4-61.4c0-33.9,27.6-61.4,61.4-61.4c33.9,0,61.4,27.6,61.4,61.4C1058.5,976.3,1031,1003.8,997.1,1003.8z
					 M997.1,874.1c-37.6,0-68.3,30.6-68.3,68.3c0,37.6,30.6,68.3,68.3,68.3c37.6,0,68.3-30.6,68.3-68.3
					C1065.4,904.8,1034.7,874.1,997.1,874.1z M997.1,1003.8c-33.9,0-61.4-27.6-61.4-61.4c0-33.9,27.6-61.4,61.4-61.4
					c33.9,0,61.4,27.6,61.4,61.4C1058.5,976.3,1031,1003.8,997.1,1003.8z M997.1,874.1c-37.6,0-68.3,30.6-68.3,68.3
					c0,37.6,30.6,68.3,68.3,68.3c37.6,0,68.3-30.6,68.3-68.3C1065.4,904.8,1034.7,874.1,997.1,874.1z M997.1,1003.8
					c-33.9,0-61.4-27.6-61.4-61.4c0-33.9,27.6-61.4,61.4-61.4c33.9,0,61.4,27.6,61.4,61.4C1058.5,976.3,1031,1003.8,997.1,1003.8z
					 M997.1,874.1c-37.6,0-68.3,30.6-68.3,68.3c0,37.6,30.6,68.3,68.3,68.3c37.6,0,68.3-30.6,68.3-68.3
					C1065.4,904.8,1034.7,874.1,997.1,874.1z M997.1,1003.8c-33.9,0-61.4-27.6-61.4-61.4c0-33.9,27.6-61.4,61.4-61.4
					c33.9,0,61.4,27.6,61.4,61.4C1058.5,976.3,1031,1003.8,997.1,1003.8z M997.1,874.1c-37.6,0-68.3,30.6-68.3,68.3
					c0,37.6,30.6,68.3,68.3,68.3c37.6,0,68.3-30.6,68.3-68.3C1065.4,904.8,1034.7,874.1,997.1,874.1z M997.1,1003.8
					c-33.9,0-61.4-27.6-61.4-61.4c0-33.9,27.6-61.4,61.4-61.4c33.9,0,61.4,27.6,61.4,61.4C1058.5,976.3,1031,1003.8,997.1,1003.8z
					 M997.1,874.1c-37.6,0-68.3,30.6-68.3,68.3c0,37.6,30.6,68.3,68.3,68.3c37.6,0,68.3-30.6,68.3-68.3
					C1065.4,904.8,1034.7,874.1,997.1,874.1z M997.1,1003.8c-33.9,0-61.4-27.6-61.4-61.4c0-33.9,27.6-61.4,61.4-61.4
					c33.9,0,61.4,27.6,61.4,61.4C1058.5,976.3,1031,1003.8,997.1,1003.8z M997.1,874.1c-37.6,0-68.3,30.6-68.3,68.3
					c0,37.6,30.6,68.3,68.3,68.3c37.6,0,68.3-30.6,68.3-68.3C1065.4,904.8,1034.7,874.1,997.1,874.1z M997.1,1003.8
					c-33.9,0-61.4-27.6-61.4-61.4c0-33.9,27.6-61.4,61.4-61.4c33.9,0,61.4,27.6,61.4,61.4C1058.5,976.3,1031,1003.8,997.1,1003.8z
					 M997.1,874.1c-37.6,0-68.3,30.6-68.3,68.3c0,37.6,30.6,68.3,68.3,68.3c37.6,0,68.3-30.6,68.3-68.3
					C1065.4,904.8,1034.7,874.1,997.1,874.1z M997.1,1003.8c-33.9,0-61.4-27.6-61.4-61.4c0-33.9,27.6-61.4,61.4-61.4
					c33.9,0,61.4,27.6,61.4,61.4C1058.5,976.3,1031,1003.8,997.1,1003.8z M997.1,874.1c-37.6,0-68.3,30.6-68.3,68.3
					c0,37.6,30.6,68.3,68.3,68.3c37.6,0,68.3-30.6,68.3-68.3C1065.4,904.8,1034.7,874.1,997.1,874.1z M997.1,1003.8
					c-33.9,0-61.4-27.6-61.4-61.4c0-33.9,27.6-61.4,61.4-61.4c33.9,0,61.4,27.6,61.4,61.4C1058.5,976.3,1031,1003.8,997.1,1003.8z
					 M997.1,874.1c-37.6,0-68.3,30.6-68.3,68.3c0,37.6,30.6,68.3,68.3,68.3c37.6,0,68.3-30.6,68.3-68.3
					C1065.4,904.8,1034.7,874.1,997.1,874.1z M997.1,1003.8c-33.9,0-61.4-27.6-61.4-61.4c0-33.9,27.6-61.4,61.4-61.4
					c33.9,0,61.4,27.6,61.4,61.4C1058.5,976.3,1031,1003.8,997.1,1003.8z M997.1,874.1c-37.6,0-68.3,30.6-68.3,68.3
					c0,37.6,30.6,68.3,68.3,68.3c37.6,0,68.3-30.6,68.3-68.3C1065.4,904.8,1034.7,874.1,997.1,874.1z M997.1,1003.8
					c-33.9,0-61.4-27.6-61.4-61.4c0-33.9,27.6-61.4,61.4-61.4c33.9,0,61.4,27.6,61.4,61.4C1058.5,976.3,1031,1003.8,997.1,1003.8z
					 M997.1,874.1c-37.6,0-68.3,30.6-68.3,68.3c0,37.6,30.6,68.3,68.3,68.3c37.6,0,68.3-30.6,68.3-68.3
					C1065.4,904.8,1034.7,874.1,997.1,874.1z M997.1,1003.8c-33.9,0-61.4-27.6-61.4-61.4c0-33.9,27.6-61.4,61.4-61.4
					c33.9,0,61.4,27.6,61.4,61.4C1058.5,976.3,1031,1003.8,997.1,1003.8z M997.1,874.1c-37.6,0-68.3,30.6-68.3,68.3
					c0,37.6,30.6,68.3,68.3,68.3c37.6,0,68.3-30.6,68.3-68.3C1065.4,904.8,1034.7,874.1,997.1,874.1z M997.1,1003.8
					c-33.9,0-61.4-27.6-61.4-61.4c0-33.9,27.6-61.4,61.4-61.4c33.9,0,61.4,27.6,61.4,61.4C1058.5,976.3,1031,1003.8,997.1,1003.8z
					 M997.1,874.1c-37.6,0-68.3,30.6-68.3,68.3c0,37.6,30.6,68.3,68.3,68.3c37.6,0,68.3-30.6,68.3-68.3
					C1065.4,904.8,1034.7,874.1,997.1,874.1z M997.1,1003.8c-33.9,0-61.4-27.6-61.4-61.4c0-33.9,27.6-61.4,61.4-61.4
					c33.9,0,61.4,27.6,61.4,61.4C1058.5,976.3,1031,1003.8,997.1,1003.8z M997.1,874.1c-37.6,0-68.3,30.6-68.3,68.3
					c0,37.6,30.6,68.3,68.3,68.3c37.6,0,68.3-30.6,68.3-68.3C1065.4,904.8,1034.7,874.1,997.1,874.1z M997.1,1003.8
					c-33.9,0-61.4-27.6-61.4-61.4c0-33.9,27.6-61.4,61.4-61.4c33.9,0,61.4,27.6,61.4,61.4C1058.5,976.3,1031,1003.8,997.1,1003.8z
					 M997.1,874.1c-37.6,0-68.3,30.6-68.3,68.3c0,37.6,30.6,68.3,68.3,68.3c37.6,0,68.3-30.6,68.3-68.3
					C1065.4,904.8,1034.7,874.1,997.1,874.1z M997.1,1003.8c-33.9,0-61.4-27.6-61.4-61.4c0-33.9,27.6-61.4,61.4-61.4
					c33.9,0,61.4,27.6,61.4,61.4C1058.5,976.3,1031,1003.8,997.1,1003.8z M997.1,874.1c-37.6,0-68.3,30.6-68.3,68.3
					c0,37.6,30.6,68.3,68.3,68.3c37.6,0,68.3-30.6,68.3-68.3C1065.4,904.8,1034.7,874.1,997.1,874.1z M997.1,1003.8
					c-33.9,0-61.4-27.6-61.4-61.4c0-33.9,27.6-61.4,61.4-61.4c33.9,0,61.4,27.6,61.4,61.4C1058.5,976.3,1031,1003.8,997.1,1003.8z
					 M997.1,874.1c-37.6,0-68.3,30.6-68.3,68.3c0,37.6,30.6,68.3,68.3,68.3c37.6,0,68.3-30.6,68.3-68.3
					C1065.4,904.8,1034.7,874.1,997.1,874.1z M997.1,1003.8c-33.9,0-61.4-27.6-61.4-61.4c0-33.9,27.6-61.4,61.4-61.4
					c33.9,0,61.4,27.6,61.4,61.4C1058.5,976.3,1031,1003.8,997.1,1003.8z M997.1,874.1c-37.6,0-68.3,30.6-68.3,68.3
					c0,37.6,30.6,68.3,68.3,68.3c37.6,0,68.3-30.6,68.3-68.3C1065.4,904.8,1034.7,874.1,997.1,874.1z M997.1,1003.8
					c-33.9,0-61.4-27.6-61.4-61.4c0-33.9,27.6-61.4,61.4-61.4c33.9,0,61.4,27.6,61.4,61.4C1058.5,976.3,1031,1003.8,997.1,1003.8z
					 M997.1,874.1c-37.6,0-68.3,30.6-68.3,68.3c0,37.6,30.6,68.3,68.3,68.3c37.6,0,68.3-30.6,68.3-68.3
					C1065.4,904.8,1034.7,874.1,997.1,874.1z M997.1,1003.8c-33.9,0-61.4-27.6-61.4-61.4c0-33.9,27.6-61.4,61.4-61.4
					c33.9,0,61.4,27.6,61.4,61.4C1058.5,976.3,1031,1003.8,997.1,1003.8z M997.1,874.1c-37.6,0-68.3,30.6-68.3,68.3
					c0,37.6,30.6,68.3,68.3,68.3c37.6,0,68.3-30.6,68.3-68.3C1065.4,904.8,1034.7,874.1,997.1,874.1z M997.1,1003.8
					c-33.9,0-61.4-27.6-61.4-61.4c0-33.9,27.6-61.4,61.4-61.4c33.9,0,61.4,27.6,61.4,61.4C1058.5,976.3,1031,1003.8,997.1,1003.8z
					 M997.1,874.1c-37.6,0-68.3,30.6-68.3,68.3c0,37.6,30.6,68.3,68.3,68.3c37.6,0,68.3-30.6,68.3-68.3
					C1065.4,904.8,1034.7,874.1,997.1,874.1z M997.1,1003.8c-33.9,0-61.4-27.6-61.4-61.4c0-33.9,27.6-61.4,61.4-61.4
					c33.9,0,61.4,27.6,61.4,61.4C1058.5,976.3,1031,1003.8,997.1,1003.8z"/>
				
					<linearGradient id="SVGID_00000040571897538198472490000004714745414118981805_" gradientUnits="userSpaceOnUse" x1="999.987" y1="732.9152" x2="999.987" y2="1159.7749">
					<stop  offset="0" style="stop-color:#7458EB"/>
					<stop  offset="1" style="stop-color:#D077CD"/>
				</linearGradient>
				<path style="fill:url(#SVGID_00000040571897538198472490000004714745414118981805_);" d="M1201.3,1055
					c-18.4-21.1-36.7-21.3-43.3-21.6c-6.6-0.2-25.6,6.5-42.8-7.2c-2.4-1.9-7.6-6.5-14-12.6c2.3-3.4,4.5-6.9,6.4-10.5l2.3-4.1l-16-19
					c1.4-3.6,2.6-7.4,3.6-11.2l24.2-5.9l0.6-4.7c0.6-5.2,1-10.6,1-15.9c0-5.3-0.3-10.6-1-15.9l-0.6-4.7l-24.2-5.9
					c-1-3.8-2.2-7.5-3.6-11.2l16-19l-2.3-4.1c-1.1-1.9-2.2-3.8-3.3-5.7c4.5-4.1,8.2-7.4,10.9-9.5c17.2-13.7,36.2-7,42.8-7.2
					c6.6-0.2,24.8-0.5,43.3-21.6c15.9-18.2,19.6-39.4,20.3-45c0.1-0.7-0.1-1.3-0.6-1.7c-0.1-0.1-0.3-0.2-0.4-0.3l-2.9-1.7
					c-0.7-0.4-1.5-0.4-2.2,0c-5.7,3.5-32.7,20.2-41,24.8c-7.3,4.1-16.3,0.2-23.1-6.6c-1.9-1.9-3.6-4-5.1-6.3
					c-6.8-10.4-7-25.8,2.8-31.8c8.6-5.3,32.4-19.7,38.1-23.1c0.7-0.5,1.1-1.3,1-2.2l-0.6-3.1c-0.1-0.4-0.3-0.8-0.6-1.1
					c-0.2-0.2-0.3-0.3-0.5-0.4c-21.2-10.3-59.5-8.4-78,10.1c-18.8,18.8-14.2,43.7-14.2,50c0,6.3-1.7,22.6-19.3,40.2l-18.1,18.1
					c-1.2-0.8-2.4-1.7-3.6-2.4l1.8-24.8l-4.2-2c-9.6-4.5-19.7-7.8-30.1-9.8l-4.6-0.9l-13.1,21.1c-2-0.1-3.9-0.2-5.9-0.2
					c-1.9,0-3.9,0.1-5.9,0.2l-13.1-21.1l-4.6,0.9c-10.4,2-20.6,5.3-30.2,9.8l-4.2,2l1.8,24.8c0,0-0.1,0.1-0.1,0.1l-15.7-15.7
					c-17.5-17.6-19.3-33.9-19.3-40.2c0-6.3,4.6-31.1-14.2-50c-18.5-18.5-56.8-20.4-78-10.1c-0.2,0.1-0.4,0.2-0.5,0.4
					c-0.3,0.3-0.5,0.7-0.6,1.1l-0.6,3.1c-0.2,0.9,0.2,1.7,1,2.2c5.7,3.5,29.5,17.9,38.1,23.1c9.8,6,9.7,21.4,2.8,31.8
					c-1.5,2.2-3.2,4.4-5.1,6.3c-6.8,6.8-15.8,10.7-23.1,6.6c-8.3-4.7-35.3-21.3-41-24.8c-0.7-0.4-1.5-0.4-2.2,0l-2.9,1.7
					c-0.2,0.1-0.3,0.2-0.4,0.3c-0.5,0.4-0.7,1.1-0.6,1.7c0.7,5.6,4.5,26.8,20.3,45c18.4,21.1,36.7,21.3,43.3,21.6
					c6.6,0.2,25.6-6.5,42.8,7.2c1.9,1.5,4.3,3.6,7.2,6.2c-1.9,2.9-3.8,5.9-5.5,9l-2.3,4.1l16,19c-1.4,3.7-2.6,7.4-3.6,11.2
					l-24.2,5.9l-0.6,4.7c-0.7,5.2-1,10.6-1,15.9c0,5.3,0.3,10.6,1,15.9l0.6,4.7l24.2,5.9c1,3.8,2.2,7.5,3.6,11.2l-16,19l2.3,4.1
					c2.6,4.7,5.5,9.3,8.7,13.7c-4.8,4.5-8.5,7.8-10.5,9.4c-17.2,13.7-36.2,6.9-42.8,7.2c-6.6,0.2-24.8,0.5-43.3,21.6
					c-15.9,18.2-19.6,39.4-20.3,45c-0.1,0.7,0.1,1.3,0.6,1.7c0.1,0.1,0.3,0.2,0.4,0.3l2.9,1.7c0.7,0.4,1.5,0.4,2.2,0
					c5.7-3.5,32.7-20.2,41-24.8c7.3-4.1,16.1-0.4,23,6.4c1.9,1.9,3.7,4.1,5.3,6.5c6.8,10.4,7,25.8-2.8,31.8
					c-8.6,5.3-32.4,19.7-38.1,23.1c-0.7,0.4-1.1,1.3-1,2.2l0.6,3.1c0.1,0.4,0.3,0.8,0.6,1.1c0.1,0.2,0.3,0.3,0.5,0.4
					c21.2,10.3,59.5,8.4,78-10.1c18.8-18.8,14.2-43.6,14.2-50c0-6.3,1.7-22.6,19.3-40.2l15.2-15.2l-1.2,16.5l4.2,2
					c9.6,4.5,19.7,7.8,30.2,9.8l4.6,0.9l13.1-21.1c2,0.1,3.9,0.2,5.9,0.2c1.9,0,3.9-0.1,5.9-0.2l13.1,21.1l4.6-0.9
					c10.4-2,20.6-5.3,30.1-9.8l4.3-2l-1.7-22.8l21.5,21.5c17.5,17.5,19.3,33.8,19.3,40.2c0,6.3-4.6,31.2,14.2,50
					c18.5,18.5,56.8,20.4,78,10.1c0.2-0.1,0.4-0.2,0.5-0.4c0.3-0.3,0.5-0.7,0.6-1.1l0.6-3.1c0.2-0.9-0.2-1.7-1-2.2
					c-5.7-3.5-29.5-17.9-38.1-23.1c-9.8-6-9.7-21.4-2.8-31.8c1.5-2.4,3.3-4.6,5.2-6.5c6.9-6.9,15.7-10.5,23-6.4
					c8.3,4.7,35.3,21.3,41,24.8c0.7,0.4,1.5,0.4,2.2,0l2.9-1.7c0.2-0.1,0.3-0.2,0.4-0.3c0.4-0.4,0.7-1.1,0.6-1.7
					C1220.8,1094.4,1217.1,1073.2,1201.3,1055z M1084,1024.2l-22.5-9.2c-4.7,4.2-9.9,7.9-15.4,11.2l1.8,24.3
					c-9,4.2-18.5,7.4-28.5,9.3l-12.8-20.7c-3.1,0.3-6.3,0.5-9.5,0.5c-3.2,0-6.4-0.2-9.5-0.5l-12.8,20.7c-10-1.9-19.6-5-28.5-9.3
					l1.8-24.3c-5.5-3.2-10.6-7-15.4-11.2l-22.5,9.2c-6.9-7.3-12.8-15.4-17.7-24.3l15.7-18.6c-2.5-5.8-4.5-11.8-5.9-18.1l-23.6-5.8
					c-0.6-4.9-0.9-9.9-0.9-15c0-5.1,0.3-10.1,0.9-15l23.6-5.8c1.4-6.3,3.4-12.3,5.9-18.1l-15.7-18.6c4.9-8.8,10.8-17,17.7-24.3
					l22.5,9.2c4.7-4.2,9.9-7.9,15.4-11.2l-1.8-24.3c8.9-4.2,18.5-7.4,28.5-9.2l12.8,20.7c3.1-0.3,6.3-0.5,9.5-0.5
					c3.2,0,6.4,0.2,9.5,0.5l12.8-20.7c10,1.9,19.6,5,28.5,9.2l-1.8,24.3c5.5,3.2,10.6,7,15.4,11.2l22.5-9.2
					c6.9,7.3,12.8,15.4,17.7,24.3l-15.7,18.6c2.5,5.7,4.5,11.8,5.9,18.1l23.6,5.8c0.6,4.9,0.9,9.9,0.9,15c0,5.1-0.3,10.1-0.9,15
					l-23.6,5.8c-1.4,6.3-3.3,12.3-5.9,18.1l15.7,18.6C1096.8,1008.7,1090.9,1016.9,1084,1024.2z"/>
			</g>
		</g>
	</g>
</g>
</svg>
